<?xml version="1.0" standalone="no"?>
<!DOCTYPE svg PUBLIC "-//W3C//DTD SVG 1.1//EN" "http://www.w3.org/Graphics/SVG/1.1/DTD/svg11.dtd" >
<svg xmlns="http://www.w3.org/2000/svg" xmlns:xlink="http://www.w3.org/1999/xlink" version="1.1">
<metadata></metadata>
<defs>
<font id="volter_goldfishregular" horiz-adv-x="1365" >
<font-face units-per-em="2048" ascent="1638" descent="-410" />
<missing-glyph horiz-adv-x="1138" />
<glyph unicode=" "  horiz-adv-x="1138" />
<glyph unicode="&#x09;" horiz-adv-x="1138" />
<glyph unicode="&#xa0;" horiz-adv-x="1138" />
<glyph unicode="!" horiz-adv-x="455" d="M228 455h-228v1138h228v-1138zM228 0h-228v228h228v-228z" />
<glyph unicode="&#x22;" horiz-adv-x="910" d="M683 1138h-228v455h228v-455zM228 1138h-228v455h228v-455z" />
<glyph unicode="#" horiz-adv-x="1593" d="M910 1138h-455v-455h455v455zM1138 228h-228v227h-455v-227h-227v227h-228v228h228v455h-228v227h228v228h227v-228h455v228h228v-228h227v-227h-227v-455h227v-228h-227v-227z" />
<glyph unicode="$" horiz-adv-x="1820" d="M1593 229h-228v455h228v-455zM910 1365h-227v-455h227v455zM910 683h-227v-455h227v455zM1138 -228h-228v228h-227v-228h-228v228h-455v228h455v455h-227v227h227v455h-227v228h227v227h228v-227h227v227h228v-227h455v-228h-455v-455h227v-227h-227v-455h227v-228h-227 v-228zM228 911h-228v455h228v-455z" />
<glyph unicode="%" horiz-adv-x="1820" d="M1593 1365h-228v228h228v-228zM1365 0h-227v228h227v-228zM1593 228h-228v227h228v-227zM1365 455h-227v228h227v-228zM1138 228h-228v227h228v-227zM455 910h-227v228h227v-228zM683 1138h-228v227h228v-227zM455 1365h-227v228h227v-228zM228 1138h-228v227h228v-227z M1365 1138h-227v227h227v-227zM1138 910h-228v228h228v-228zM910 683h-227v227h227v-227zM683 455h-228v228h228v-228zM455 228h-227v227h227v-227zM228 0h-228v228h228v-228z" />
<glyph unicode="&#x26;" horiz-adv-x="1593" d="M1365 455h-227v228h227v-228zM910 455h-227v228h-455v682h227v-455h455v-455zM1138 910h-228v455h228v-455zM910 1365h-455v228h455v-228zM1365 0h-227v228h227v-228zM1138 228h-228v227h228v-227zM910 0h-682v228h682v-228zM228 228h-228v455h228v-455z" />
<glyph unicode="'" horiz-adv-x="455" d="M228 910h-228v683h228v-683z" />
<glyph unicode="(" horiz-adv-x="910" d="M683 1365h-455v228h455v-228zM683 0h-455v228h455v-228zM228 229h-228v1137h228v-1137z" />
<glyph unicode=")" horiz-adv-x="910" d="M683 229h-228v1137h228v-1137zM456 1365h-455v228h455v-228zM456 0h-455v228h455v-228z" />
<glyph unicode="*" d="M1138 1365h-228v228h228v-228zM683 683h-228v455h-227v227h227v455h228v-455h227v-227h-227v-455zM1138 910h-228v228h228v-228zM228 1365h-228v228h228v-228zM228 910h-228v228h228v-228z" />
<glyph unicode="+" d="M683 0h-228v455h-455v228h455v455h228v-455h455v-228h-455v-455z" />
<glyph unicode="," horiz-adv-x="683" d="M455 -228h-227v228h-228v455h455v-683zM228 -454h-228v227h228v-227z" />
<glyph unicode="-" horiz-adv-x="1138" d="M910 455h-910v228h910v-228z" />
<glyph unicode="." horiz-adv-x="683" d="M455 0h-455v455h455v-455z" />
<glyph unicode="/" horiz-adv-x="1820" d="M1593 1365h-228v228h228v-228zM1365 1138h-227v227h227v-227zM1138 910h-228v228h228v-228zM910 683h-227v227h227v-227zM683 455h-228v228h228v-228zM455 228h-227v227h227v-227zM228 0h-228v228h228v-228z" />
<glyph unicode="0" d="M1138 228h-228v682h-227v228h227v227h228v-1137zM910 1h-682v228h682v-228zM228 228h-228v1137h228v-682h227v-228h-227v-227zM683 683h-228v227h228v-227zM910 1365h-682v228h682v-228z" />
<glyph unicode="1" horiz-adv-x="683" d="M455 0h-227v1365h-228v228h455v-1593z" />
<glyph unicode="2" d="M1138 911h-228v455h228v-455zM1138 0h-1138v683h228v-455h910v-228zM910 683h-682v227h682v-227zM910 1365h-910v228h910v-228z" />
<glyph unicode="3" d="M1138 911h-228v455h228v-455zM910 1365h-910v228h910v-228zM1138 229h-228v455h228v-455zM910 683h-682v227h682v-227zM910 1h-910v228h910v-228z" />
<glyph unicode="4" d="M455 910h-227v228h227v-228zM228 910h-228v-227h228v227zM910 0h-227v455h-683v228h683v455h-228v227h228v228h227v-910h228v-228h-228v-455z" />
<glyph unicode="5" d="M1138 229h-228v455h228v-455zM910 683h-910v910h1138v-228h-910v-455h682v-227zM910 1h-910v228h910v-228z" />
<glyph unicode="6" d="M1138 229h-228v455h228v-455zM910 1365h-682v228h682v-228zM910 1h-682v228h682v-228zM228 228h-228v1137h228v-455h682v-227h-682v-455z" />
<glyph unicode="7" d="M910 684h-227v455h227v-455zM1138 1138h-228v227h-910v228h1138v-455zM683 229h-228v455h228v-455zM455 0h-227v228h227v-228z" />
<glyph unicode="8" d="M1138 910h-228v455h228v-455zM910 1365h-682v228h682v-228zM1138 228h-228v455h228v-455zM228 910h-228v455h228v-455zM910 683h-682v227h682v-227zM910 0h-682v228h682v-228zM228 228h-228v455h228v-455z" />
<glyph unicode="9" d="M1138 228h-228v455h-682v227h682v455h228v-1137zM910 1365h-682v228h682v-228zM228 911h-228v455h228v-455zM910 1h-682v228h682v-228z" />
<glyph unicode=":" horiz-adv-x="683" d="M455 683h-455v455h455v-455zM455 0h-455v455h455v-455z" />
<glyph unicode=";" horiz-adv-x="683" d="M455 683h-455v455h455v-455zM455 -228h-227v228h-228v455h455v-683zM228 -454h-228v227h228v-227z" />
<glyph unicode="&#x3c;" horiz-adv-x="1138" d="M910 1365h-227v228h227v-228zM910 0h-227v228h227v-228zM683 1138h-228v227h228v-227zM455 910h-227v228h227v-228zM228 683h-228v227h228v-227zM455 455h-227v228h227v-228zM683 228h-228v227h228v-227z" />
<glyph unicode="=" d="M1138 683h-1138v227h1138v-227zM1138 228h-1138v227h1138v-227z" />
<glyph unicode="&#x3e;" horiz-adv-x="1138" d="M910 683h-227v227h227v-227zM228 1365h-228v228h228v-228zM455 1138h-227v227h227v-227zM683 910h-228v228h228v-228zM683 455h-228v228h228v-228zM455 228h-227v227h227v-227zM228 0h-228v228h228v-228z" />
<glyph unicode="?" d="M1138 910h-228v455h228v-455zM228 1138h-228v227h228v-227zM910 1365h-682v228h682v-228zM910 683h-227v227h227v-227zM683 455h-228v228h228v-228zM683 0h-228v228h228v-228z" />
<glyph unicode="@" horiz-adv-x="1820" d="M910 910h-227v-227h227v227zM1593 455h-1138v683h683v-455h227v682h228v-910zM1365 1365h-1137v228h1137v-228zM1365 0h-1137v228h1137v-228zM228 229h-228v1137h228v-1137z" />
<glyph unicode="A" d="M910 1365h-682v228h682v-228zM1138 0h-228v683h-682v-683h-228v1365h228v-455h682v455h228v-1365z" />
<glyph unicode="B" d="M1138 911h-228v455h228v-455zM910 0h-910v1593h910v-228h-682v-455h682v-227h-682v-455h682v-228zM1138 229h-228v455h228v-455z" />
<glyph unicode="C" d="M1138 1138h-228v227h228v-227zM1138 228h-228v227h228v-227zM910 1365h-682v228h682v-228zM910 1h-682v228h682v-228zM228 229h-228v1137h228v-1137z" />
<glyph unicode="D" d="M1138 229h-228v1137h228v-1137zM910 0h-910v1593h910v-228h-682v-1137h682v-228z" />
<glyph unicode="E" d="M1138 0h-1138v1593h1138v-228h-910v-455h682v-227h-682v-455h910v-228z" />
<glyph unicode="F" d="M228 0h-228v1593h1138v-228h-910v-455h682v-227h-682v-683z" />
<glyph unicode="G" d="M1138 1138h-228v227h228v-227zM1138 228h-228v455h-455v227h683v-682zM910 1h-682v228h682v-228zM228 229h-228v1137h228v-1137zM910 1365h-682v228h682v-228z" />
<glyph unicode="H" d="M1138 0h-228v683h-682v-683h-228v1593h228v-683h682v683h228v-1593z" />
<glyph unicode="I" horiz-adv-x="910" d="M683 0h-683v228h228v1137h-228v228h683v-228h-228v-1137h228v-228z" />
<glyph unicode="J" d="M1138 228h-228v1365h228v-1365zM910 1h-682v228h682v-228zM228 228h-228v227h228v-227z" />
<glyph unicode="K" d="M1138 1365h-228v228h228v-228zM228 0h-228v1593h228v-683h227v-227h-227v-683zM1138 0h-228v228h228v-228zM910 228h-227v227h227v-227zM683 455h-228v228h228v-228zM683 910h-228v228h228v-228zM910 1138h-227v227h227v-227z" />
<glyph unicode="L" d="M1138 0h-1138v1593h228v-1365h910v-228z" />
<glyph unicode="M" horiz-adv-x="1593" d="M1365 0h-227v1138h-228v227h228v228h227v-1593zM910 910h-455v228h455v-228zM228 0h-228v1593h228v-228h227v-227h-227v-1138z" />
<glyph unicode="N" d="M1138 0h-228v455h-227v228h227v910h228v-1593zM683 683h-228v227h228v-227zM228 0h-228v1593h228v-455h227v-228h-227v-910z" />
<glyph unicode="O" d="M1138 229h-228v1137h228v-1137zM228 229h-228v1137h228v-1137zM910 1365h-682v228h682v-228zM910 1h-682v228h682v-228z" />
<glyph unicode="P" d="M1138 684h-228v682h228v-682zM228 0h-228v1593h910v-228h-682v-682h682v-228h-682v-455z" />
<glyph unicode="Q" horiz-adv-x="1593" d="M1365 -227h-227v228h227v-228zM1138 0h-910v228h455v227h227v910h228v-1365zM910 1365h-682v228h682v-228zM228 229h-228v1137h228v-1137z" />
<glyph unicode="R" d="M1138 684h-228v682h228v-682zM1138 0h-228v228h228v-228zM228 0h-228v1593h910v-228h-682v-682h682v-455h-227v227h-455v-455z" />
<glyph unicode="S" d="M1138 1138h-228v227h228v-227zM228 228h-228v227h228v-227zM910 0h-682v228h682v-228zM1138 228h-228v455h228v-455zM910 683h-682v227h682v-227zM228 910h-228v455h228v-455zM910 1365h-682v228h682v-228z" />
<glyph unicode="T" d="M683 0h-228v1365h-455v228h1138v-228h-455v-1365z" />
<glyph unicode="U" d="M1138 228h-228v1365h228v-1365zM910 1h-682v228h682v-228zM229 228h-228v1365h228v-1365z" />
<glyph unicode="V" d="M1138 683h-228v910h228v-910zM910 229h-227v455h227v-455zM683 0h-228v228h228v-228zM455 229h-227v455h227v-455zM228 683h-228v910h228v-910z" />
<glyph unicode="W" horiz-adv-x="1820" d="M1593 683h-228v910h228v-910zM1365 228h-227v455h227v-455zM1138 0h-228v228h228v-228zM910 228h-227v910h227v-910zM683 0h-228v228h228v-228zM455 228h-227v455h227v-455zM228 683h-228v910h228v-910z" />
<glyph unicode="X" d="M1138 1138h-228v455h228v-455zM1138 0h-228v455h228v-455zM910 455h-227v228h227v-228zM910 910h-227v228h227v-228zM683 683h-228v227h228v-227zM228 0h-228v455h228v-455zM455 455h-227v228h227v-228zM455 910h-227v228h227v-228zM228 1138h-228v455h228v-455z" />
<glyph unicode="Y" d="M1138 910h-228v683h228v-683zM910 683h-227v227h227v-227zM683 1h-228v683h228v-683zM455 683h-227v227h227v-227zM228 910h-228v683h228v-683z" />
<glyph unicode="Z" d="M910 910h-227v228h227v-228zM455 455h-227v228h227v-228zM683 683h-228v227h228v-227zM1138 1138h-228v227h-910v228h1138v-455zM1138 0h-1138v455h228v-227h910v-228z" />
<glyph unicode="[" horiz-adv-x="910" d="M683 0h-683v1593h683v-228h-455v-1137h455v-228z" />
<glyph unicode="\" horiz-adv-x="1820" d="M1593 0h-228v228h228v-228zM1365 228h-227v227h227v-227zM1138 455h-228v228h228v-228zM910 683h-227v227h227v-227zM683 910h-228v228h228v-228zM455 1138h-227v227h227v-227zM228 1365h-228v228h228v-228z" />
<glyph unicode="]" horiz-adv-x="910" d="M683 0h-683v228h455v1137h-455v228h683v-1593z" />
<glyph unicode="^" horiz-adv-x="910" d="M683 1138h-228v227h228v-227zM455 1365h-227v228h227v-228zM228 1138h-228v227h228v-227z" />
<glyph unicode="_" horiz-adv-x="1593" d="M1365 0h-1365v228h1365v-228z" />
<glyph unicode="`" horiz-adv-x="683" d="M455 1138h-227v227h227v-227zM228 1365h-228v228h228v-228z" />
<glyph unicode="a" d="M1138 0h-910v228h682v227h-682v228h682v227h228v-910zM910 910h-682v228h682v-228zM228 228h-228v227h228v-227z" />
<glyph unicode="b" d="M1138 229h-228v682h228v-682zM910 0h-910v1593h228v-455h682v-228h-682v-682h682v-228z" />
<glyph unicode="c" d="M1138 683h-228v227h228v-227zM1138 228h-228v227h228v-227zM910 910h-682v228h682v-228zM910 1h-682v228h682v-228zM228 229h-228v682h228v-682z" />
<glyph unicode="d" d="M1138 0h-910v228h682v682h-682v228h682v455h228v-1593zM228 229h-228v682h228v-682z" />
<glyph unicode="e" d="M1138 1h-910v228h910v-228zM910 910h-682v228h682v-228zM228 228h-228v682h228v-227h682v227h228v-455h-910v-227z" />
<glyph unicode="f" horiz-adv-x="1138" d="M910 1365h-455v228h455v-228zM455 0h-227v910h-228v228h228v227h227v-227h228v-228h-228v-910z" />
<glyph unicode="g" d="M1138 -228h-228v228h-682v228h682v682h-682v228h910v-1366zM910 -454h-682v227h682v-227zM228 229h-228v682h228v-682z" />
<glyph unicode="h" d="M1138 1h-228v910h228v-910zM228 0h-228v1593h228v-455h682v-228h-682v-910z" />
<glyph unicode="i" horiz-adv-x="455" d="M228 1365h-228v228h228v-228zM228 0h-228v1138h228v-1138z" />
<glyph unicode="j" horiz-adv-x="683" d="M455 1365h-227v228h227v-228zM455 -228h-227v1366h227v-1366zM228 -454h-228v227h228v-227z" />
<glyph unicode="k" horiz-adv-x="1138" d="M910 910h-227v228h227v-228zM910 0h-227v228h227v-228zM683 228h-228v227h228v-227zM683 683h-228v227h228v-227zM228 0h-228v1593h228v-910h227v-228h-227v-455z" />
<glyph unicode="l" horiz-adv-x="455" d="M228 0h-228v1593h228v-1593z" />
<glyph unicode="m" horiz-adv-x="1820" d="M1593 1h-228v910h228v-910zM910 0h-227v910h-455v-910h-228v1138h1365v-228h-455v-910z" />
<glyph unicode="n" d="M1138 1h-228v910h228v-910zM228 0h-228v1138h910v-228h-682v-910z" />
<glyph unicode="o" d="M1138 229h-228v682h228v-682zM910 910h-682v228h682v-228zM910 1h-682v228h682v-228zM228 229h-228v682h228v-682z" />
<glyph unicode="p" d="M1138 229h-228v682h228v-682zM228 -454h-228v1593h910v-228h-682v-682h682v-228h-682v-455z" />
<glyph unicode="q" d="M1138 -455h-228v455h-682v228h682v682h-682v228h910v-1593zM228 229h-228v682h228v-682z" />
<glyph unicode="r" horiz-adv-x="1138" d="M910 910h-455v228h455v-228zM228 0h-228v1138h228v-228h227v-227h-227v-683z" />
<glyph unicode="s" d="M1138 228h-228v227h228v-227zM1138 910h-910v228h910v-228zM228 683h-228v227h228v-227zM910 455h-682v228h682v-228zM910 1h-910v228h910v-228z" />
<glyph unicode="t" horiz-adv-x="1138" d="M910 0h-455v228h455v-228zM455 228h-227v682h-228v228h228v455h227v-455h455v-228h-455v-682z" />
<glyph unicode="u" d="M1138 229h-228v910h228v-910zM910 1h-682v228h682v-228zM228 229h-228v910h228v-910z" />
<glyph unicode="v" d="M1138 684h-228v455h228v-455zM910 229h-227v455h227v-455zM683 0h-228v228h228v-228zM455 229h-227v455h227v-455zM228 684h-228v455h228v-455z" />
<glyph unicode="w" horiz-adv-x="1820" d="M1593 229h-228v910h228v-910zM1365 0h-455v228h455v-228zM910 229h-227v910h227v-910zM683 0h-455v228h455v-228zM228 229h-228v910h228v-910z" />
<glyph unicode="x" d="M1138 910h-228v228h228v-228zM1138 0h-228v228h228v-228zM910 228h-227v227h227v-227zM455 683h-227v227h227v-227zM228 910h-228v228h228v-228zM910 683h-227v227h227v-227zM683 455h-228v228h228v-228zM455 228h-227v227h227v-227zM228 0h-228v228h228v-228z" />
<glyph unicode="y" d="M1138 -228h-228v228h-682v228h682v910h228v-1366zM910 -454h-682v227h682v-227zM228 229h-228v910h228v-910z" />
<glyph unicode="z" d="M683 455h-228v228h228v-228zM910 683h-227v227h-683v228h1138v-228h-228v-227zM1138 0h-1138v228h228v227h227v-227h683v-228z" />
<glyph unicode="{" horiz-adv-x="1138" d="M910 1365h-455v228h455v-228zM910 0h-455v228h455v-228zM455 911h-227v455h227v-455zM455 229h-227v455h227v-455zM228 683h-228v227h228v-227z" />
<glyph unicode="|" horiz-adv-x="1820" d="M1365 1365h-455v-227h-227v227h-455v-682h227v-228h228v-227h227v227h228v228h227v682zM910 0h-227v228h-228v227h-227v228h-228v682h228v228h455v-228h227v228h455v-228h228v-682h-228v-228h-227v-227h-228v-228z" />
<glyph unicode="}" horiz-adv-x="1138" d="M910 683h-227v227h227v-227zM456 0h-455v228h455v-228zM683 229h-228v455h228v-455zM683 911h-228v455h228v-455zM456 1365h-455v228h455v-228z" />
<glyph unicode="~" d="M1138 1365h-228v228h228v-228zM910 1138h-455v227h-227v228h455v-228h227v-227zM228 1138h-228v227h228v-227z" />
<glyph unicode="&#xa1;" horiz-adv-x="455" d="M228 910h-228v228h228v-228zM228 -454h-228v1138h228v-1138z" />
<glyph unicode="&#xa2;" d="M1138 683h-228v227h228v-227zM683 -228h-228v228h-227v228h227v682h-227v228h227v227h228v-227h227v-228h-227v-682h227v-228h-227v-228zM1138 228h-228v227h228v-227zM228 229h-228v682h228v-682z" />
<glyph unicode="&#xa3;" d="M1138 1365h-683v228h683v-228zM910 683h-682v682h227v-455h455v-227zM1138 0h-1138v683h228v-455h910v-228z" />
<glyph unicode="&#xa5;" horiz-adv-x="2731" d="M2276 -228h-456v228h-227v228h-683v-228h-227v-228h-455v228h227v455h228v228h-228v227h-455v228h910v455h228v227h227v-227h228v-455h910v-228h-455v-227h-228v-228h228v-455h228v-228z" />
<glyph unicode="&#xa7;" d="M1138 1365h-228v228h228v-228zM228 -228h-228v228h228v-228zM910 -455h-682v227h682v-227zM1138 -228h-228v456h228v-456zM1138 455h-228v455h228v-455zM910 1593h-682v227h682v-227zM228 1138h-228v455h228v-455zM910 910h-682v228h682v-228zM910 228h-682v227h682v-227 zM228 455h-228v455h228v-455z" />
<glyph unicode="&#xa8;" horiz-adv-x="910" d="M683 1593h-228v227h228v-227zM228 1593h-228v227h228v-227z" />
<glyph unicode="&#xa9;" horiz-adv-x="1820" d="M1593 455h-228v683h228v-683zM1138 455h-683v683h683v-228h-455v-227h455v-228zM455 1138h-227v227h227v-227zM1138 1365h-683v228h683v-228zM1365 1138h-227v227h227v-227zM1365 228h-227v227h227v-227zM1138 0h-683v228h683v-228zM455 228h-227v227h227v-227zM228 455 h-228v683h228v-683z" />
<glyph unicode="&#xaa;" horiz-adv-x="2276" d="M1593 683h-455v455h455v-455zM910 683h-455v455h455v-455zM1593 1593h-1138v-228h-227v-910h227v-455h228v455h227v-455h228v455h227v-455h228v455h227v910h-227v228zM1593 -228h-1138v228h-227v455h-228v910h228v228h227v227h1138v-227h227v-228h228v-910h-228v-455 h-227v-228z" />
<glyph unicode="&#xab;" horiz-adv-x="1593" d="M1365 1138h-227v227h227v-227zM1365 228h-227v227h227v-227zM1138 910h-228v228h228v-228zM1138 455h-228v228h228v-228zM910 683h-227v227h227v-227zM683 1138h-228v227h228v-227zM683 228h-228v227h228v-227zM455 910h-227v228h227v-228zM455 455h-227v228h227v-228z M228 683h-228v227h228v-227z" />
<glyph unicode="&#xac;" horiz-adv-x="5234" d="M2276 455h-228v455h228v-455zM2958 1593h-455v-228h-455v-227h-228v-228h-227v-682h910v227h228v-227h-228v-228h-455v-228h1138v228h455v228h227v227h456v228h-456v227h-227v228h-228v227h-455v228zM3186 -455h-1138v227h-228v228h-227v228h-228v682h228v228h227v227 h228v228h455v227h455v-227h455v-228h228v-227h227v-228h456v228h227v227h228v-227h-228v-228h-227v-227h227v227h228v-227h-228v-228h228v-227h-228v227h-227v-227h227v-228h228v-228h-228v228h-227v228h-456v-228h-227v-228h-455v-227zM683 0h-228v228h228v-228zM455 228 h-227v227h227v-227zM1365 -228h-227v228h227v-228zM910 228h-227v227h227v-227zM683 455h-228v228h228v-228zM910 910h-455v228h455v-228zM455 1138h-227v455h227v-455zM1138 1138h-228v455h228v-455zM910 1593h-455v227h455v-227z" />
<glyph unicode="&#xae;" horiz-adv-x="1820" d="M1593 455h-228v683h228v-683zM683 455h-228v683h683v-228h-228v-227h-227v-228zM1138 455h-228v228h228v-228zM455 1138h-227v227h227v-227zM1138 1365h-683v228h683v-228zM1365 1138h-227v227h227v-227zM1365 228h-227v227h227v-227zM1138 0h-683v228h683v-228zM455 228 h-227v227h227v-227zM228 455h-228v683h228v-683z" />
<glyph unicode="&#xaf;" horiz-adv-x="910" d="M683 1593h-683v227h683v-227z" />
<glyph unicode="&#xb0;" horiz-adv-x="1138" d="M910 1138h-227v455h227v-455zM683 1593h-455v227h455v-227zM683 910h-455v228h455v-228zM228 1138h-228v455h228v-455z" />
<glyph unicode="&#xb1;" horiz-adv-x="1138" d="M683 1138h-455v-228h455v228zM910 0h-910v1593h683v227h227v-1820z" />
<glyph unicode="&#xb4;" horiz-adv-x="683" d="M455 1593h-227v227h227v-227zM228 1365h-228v228h228v-228z" />
<glyph unicode="&#xb5;" horiz-adv-x="2503" d="M1593 1593h-228v227h228v-227zM1820 -455h-1592v227h-228v228h228v-228h1592v228h228v-228h-228v-227zM2048 683h-228v-228h228v228zM1593 910h-1138v-682h1138v682zM1593 0h-1138v228h-227v910h1592v-228h456v-455h-228v-227h-455v-228zM910 1365h-227v228h227v-228z M1365 1365h-227v228h227v-228zM1138 1593h-228v227h228v-227z" />
<glyph unicode="&#xb6;" horiz-adv-x="2503" d="M2276 910h-228v228h228v-228zM228 455h-228v228h228v-228zM1365 -228h-455v228h455v-228zM228 910h-228v228h228v-228zM1593 1138h-910v-683h910v683zM1593 0h-228v228h-455v-228h-227v455h-228v683h228v227h910v-227h227v-683h-227v-455zM455 1365h-227v228h227v-228z M910 1593h-227v227h227v-227zM2276 455h-228v228h228v-228zM2048 1365h-228v228h228v-228zM1593 1593h-228v227h228v-227z" />
<glyph unicode="&#xb7;" horiz-adv-x="1138" />
<glyph unicode="&#xb8;" horiz-adv-x="455" d="M228 -454h-228v455h228v-455z" />
<glyph unicode="&#xba;" horiz-adv-x="1593" d="M228 -228h-228v228h228v455h227v228h-455v455h228v682h1137v-227h-227v-228h-228v-227h-227v-228h455v-227h-228v-228h-227v-227h-228v-228h-227v-228z" />
<glyph unicode="&#xbb;" horiz-adv-x="1820" d="M1365 0h-1137v228h455v227h-683v455h455v-227h228v227h-228v455h228v228h227v-228h228v-455h-228v-227h228v227h455v-455h-683v-227h455v-228z" />
<glyph unicode="&#xbf;" d="M1138 -228h-228v228h228v-228zM683 910h-228v228h228v-228zM910 -455h-682v227h682v-227zM228 -228h-228v456h228v-456zM455 228h-227v227h227v-227zM683 455h-228v228h228v-228z" />
<glyph unicode="&#xc0;" d="M910 1138h-682v227h227v228h228v-228h227v-227zM455 1593h-227v227h227v-227zM1138 0h-228v455h-682v-455h-228v1138h228v-455h682v455h228v-1138z" />
<glyph unicode="&#xc1;" d="M910 1593h-227v227h227v-227zM910 1138h-682v227h227v228h228v-228h227v-227zM1138 0h-228v455h-682v-455h-228v1138h228v-455h682v455h228v-1138z" />
<glyph unicode="&#xc2;" d="M683 1593h-228v227h228v-227zM910 1138h-682v455h227v-228h228v228h227v-455zM1138 0h-228v455h-682v-455h-228v1138h228v-455h682v455h228v-1138z" />
<glyph unicode="&#xc3;" d="M1138 1593h-228v227h228v-227zM910 1138h-682v227h227v228h-227v227h455v-227h227v-455zM1138 0h-228v455h-682v-455h-228v1138h228v-455h682v455h228v-1138zM228 1365h-228v228h228v-228z" />
<glyph unicode="&#xc4;" d="M910 1593h-227v227h227v-227zM910 1138h-682v227h682v-227zM455 1593h-227v227h227v-227zM1138 0h-228v683h-682v-683h-228v1138h228v-228h682v228h228v-1138z" />
<glyph unicode="&#xc5;" d="M683 1593h-228v227h228v-227zM910 1138h-682v455h227v-228h228v228h227v-455zM1138 0h-228v683h-682v-683h-228v1138h228v-228h682v228h228v-1138z" />
<glyph unicode="&#xc6;" horiz-adv-x="2276" d="M2048 0h-1138v683h-682v-683h-228v1365h228v-455h682v455h-682v228h1820v-228h-910v-455h910v-227h-910v-455h910v-228z" />
<glyph unicode="&#xc7;" d="M1138 1138h-228v227h228v-227zM1138 228h-228v227h228v-227zM910 1365h-682v228h682v-228zM228 228h-228v1137h228v-1137zM683 -228h-228v228h-227v228h682v-228h-227v-228zM455 -455h-227v227h227v-227z" />
<glyph unicode="&#xc8;" d="M455 1593h-227v227h227v-227zM1138 0h-1138v1365h455v228h228v-228h455v-227h-910v-228h682v-227h-682v-455h910v-228z" />
<glyph unicode="&#xc9;" d="M910 1593h-227v227h227v-227zM683 1365h-228v228h228v-228zM1138 0h-1138v1138h1138v-228h-910v-227h682v-228h-682v-227h910v-228z" />
<glyph unicode="&#xca;" d="M683 1593h-228v227h228v-227zM1138 0h-1138v1365h228v228h227v-228h228v228h227v-228h228v-227h-910v-228h682v-227h-682v-455h910v-228z" />
<glyph unicode="&#xcb;" d="M910 1593h-227v227h227v-227zM1138 0h-1138v1365h1138v-227h-910v-228h682v-227h-682v-455h910v-228zM455 1593h-227v227h227v-227z" />
<glyph unicode="&#xcc;" horiz-adv-x="1593" d="M910 1365h-455v-455h455v455zM1138 683h-910v-455h910v455zM1365 0h-1365v910h228v455h227v228h455v-228h228v-455h227v-910z" />
<glyph unicode="&#xcd;" horiz-adv-x="1593" d="M683 0h-455v228h-228v227h228v228h455v910h227v-228h228v-227h227v-228h-227v228h-228v-910h-227v-228z" />
<glyph unicode="&#xce;" horiz-adv-x="910" d="M455 1593h-227v227h227v-227zM683 0h-683v228h228v910h-228v455h228v-228h227v228h228v-455h-228v-910h228v-228z" />
<glyph unicode="&#xcf;" horiz-adv-x="910" d="M683 1593h-228v227h228v-227zM683 0h-683v228h228v910h-228v227h683v-227h-228v-910h228v-228zM228 1593h-228v227h228v-227z" />
<glyph unicode="&#xd1;" d="M1138 1593h-228v227h228v-227zM1138 0h-228v228h-227v227h227v683h228v-1138zM910 1365h-455v228h-227v227h455v-227h227v-228zM228 1365h-228v228h228v-228zM683 455h-228v228h228v-228zM228 0h-228v1138h228v-228h227v-227h-227v-683z" />
<glyph unicode="&#xd2;" d="M1138 229h-228v910h228v-910zM455 1593h-227v227h227v-227zM910 1138h-682v227h227v228h228v-228h227v-227zM910 1h-682v228h682v-228zM228 229h-228v910h228v-910z" />
<glyph unicode="&#xd3;" d="M1138 229h-228v910h228v-910zM910 1593h-227v227h227v-227zM910 1138h-682v227h227v228h228v-228h227v-227zM910 1h-682v228h682v-228zM228 229h-228v910h228v-910z" />
<glyph unicode="&#xd4;" d="M1138 229h-228v910h228v-910zM910 1138h-682v455h227v-228h228v228h227v-455zM683 1593h-228v227h228v-227zM910 1h-682v228h682v-228zM228 229h-228v910h228v-910z" />
<glyph unicode="&#xd5;" horiz-adv-x="1820" d="M910 0h-227v228h-228v227h-227v228h-228v227h228v228h227v227h228v228h227v-228h228v-227h227v-228h228v-227h-228v-228h-227v-227h-228v-228z" />
<glyph unicode="&#xd6;" d="M1138 228h-228v910h228v-910zM910 1593h-227v227h227v-227zM455 1593h-227v227h227v-227zM910 1138h-682v227h682v-227zM910 0h-682v228h682v-228zM228 228h-228v910h228v-910z" />
<glyph unicode="&#xd8;" horiz-adv-x="1593" d="M1365 1593h-227v227h227v-227zM683 683h-228v227h228v-227zM1138 228h-228v682h-227v455h-455v228h910v-1365zM910 0h-910v1365h228v-682h227v-455h455v-228zM1 -227h-228v228h228v-228z" />
<glyph unicode="&#xd9;" d="M1138 229h-228v1137h228v-1137zM683 1365h-228v228h228v-228zM910 1h-682v228h682v-228zM228 229h-228v1137h228v-1137zM455 1593h-227v227h227v-227z" />
<glyph unicode="&#xda;" d="M1138 229h-228v1137h228v-1137zM910 1593h-227v227h227v-227zM683 1365h-228v228h228v-228zM910 1h-682v228h682v-228zM228 229h-228v1137h228v-1137z" />
<glyph unicode="&#xdb;" d="M1138 228h-228v1137h228v-1137zM910 1365h-227v228h227v-228zM683 1593h-228v227h228v-227zM455 1365h-227v228h227v-228zM910 0h-682v228h682v-228zM228 228h-228v1137h228v-1137z" />
<glyph unicode="&#xdc;" d="M1138 229h-228v1137h228v-1137zM910 1593h-227v227h227v-227zM455 1593h-227v227h227v-227zM910 1h-682v228h682v-228zM228 229h-228v1137h228v-1137z" />
<glyph unicode="&#xdf;" d="M1138 911h-228v455h228v-455zM1138 229h-228v455h228v-455zM910 0h-455v228h455v-228zM910 1365h-682v228h682v-228zM228 -455h-228v1820h228v-455h682v-227h-682v-1138z" />
<glyph unicode="&#xe0;" d="M683 1365h-228v228h228v-228zM1138 0h-910v228h682v227h-682v228h682v227h228v-910zM455 1593h-227v227h227v-227zM910 910h-682v228h682v-228zM228 228h-228v227h228v-227z" />
<glyph unicode="&#xe1;" d="M910 1593h-227v227h227v-227zM683 1365h-228v228h228v-228zM1138 0h-910v228h682v227h-682v228h682v227h228v-910zM910 910h-682v228h682v-228zM228 228h-228v227h228v-227z" />
<glyph unicode="&#xe2;" d="M910 1365h-227v228h227v-228zM1138 0h-910v228h682v227h-682v228h682v227h228v-910zM683 1593h-228v227h228v-227zM910 910h-682v228h682v-228zM455 1365h-227v228h227v-228zM228 228h-228v227h228v-227z" />
<glyph unicode="&#xe3;" d="M1138 1593h-228v227h228v-227zM1138 0h-910v228h682v227h-682v228h682v227h228v-910zM910 1365h-455v228h-227v227h455v-227h227v-228zM910 910h-682v228h682v-228zM228 1365h-228v228h228v-228zM228 228h-228v227h228v-227z" />
<glyph unicode="&#xe4;" d="M910 1365h-227v228h227v-228zM1138 0h-910v228h682v227h-682v228h682v227h228v-910zM910 910h-682v228h682v-228zM455 1365h-227v228h227v-228zM228 228h-228v227h228v-227z" />
<glyph unicode="&#xe5;" d="M910 1365h-227v228h227v-228zM683 1593h-228v227h228v-227zM1138 0h-910v228h682v227h-682v228h682v227h228v-910zM455 1365h-227v228h227v-228zM910 910h-682v228h227v227h228v-227h227v-228zM228 228h-228v227h228v-227z" />
<glyph unicode="&#xe6;" horiz-adv-x="2276" d="M1820 910h-682v228h682v-228zM2048 0h-1820v228h682v227h-682v228h682v227h228v-227h682v227h228v-455h-910v-227h910v-228zM910 910h-682v228h682v-228zM228 228h-228v227h228v-227z" />
<glyph unicode="&#xe7;" d="M1138 683h-228v227h228v-227zM455 -455h-227v227h227v-227zM683 -228h-228v228h-227v228h682v-228h-227v-228zM1138 228h-228v227h228v-227zM910 910h-682v228h682v-228zM228 228h-228v682h228v-682z" />
<glyph unicode="&#xe8;" d="M683 1365h-228v228h228v-228zM910 910h-682v228h682v-228zM455 1593h-227v227h227v-227zM1138 1h-910v228h910v-228zM228 228h-228v682h228v-227h682v227h228v-455h-910v-227z" />
<glyph unicode="&#xe9;" d="M910 1593h-227v227h227v-227zM683 1365h-228v228h228v-228zM1138 1h-910v228h910v-228zM910 910h-682v228h682v-228zM228 228h-228v682h228v-227h682v227h228v-455h-910v-227z" />
<glyph unicode="&#xea;" d="M910 1365h-227v228h227v-228zM683 1593h-228v227h228v-227zM1138 0h-910v228h910v-228zM455 1365h-227v228h227v-228zM910 910h-682v228h682v-228zM228 228h-228v682h228v-227h682v227h228v-455h-910v-227z" />
<glyph unicode="&#xeb;" d="M910 1365h-227v228h227v-228zM1138 1h-910v228h910v-228zM455 1365h-227v228h227v-228zM910 910h-682v228h682v-228zM228 228h-228v682h228v-227h682v227h228v-455h-910v-227z" />
<glyph unicode="&#xec;" horiz-adv-x="2048" d="M1593 -228h-1138v228h-227v228h-228v1137h228v228h227v227h910v-227h228v-228h227v-682h-227v-228h-228v-227h-682v227h-228v683h228v227h455v-227h227v-228h-227v-227h-228v227h228v228h-455v-683h682v228h228v682h-228v228h-910v-228h-227v-1137h227v-228h1138v228h227 v-228h-227v-228z" />
<glyph unicode="&#xed;" horiz-adv-x="1138" d="M683 455h-455v-227h455v227zM683 0h-455v228h-228v227h228v228h455v910h227v-1365h-227v-228z" />
<glyph unicode="&#xee;" horiz-adv-x="683" d="M455 1365h-227v228h227v-228zM228 1593h-228v227h228v-227zM228 0h-228v1138h228v-1138zM1 1365h-228v228h228v-228z" />
<glyph unicode="&#xef;" horiz-adv-x="683" d="M455 1365h-227v228h227v-228zM228 0h-228v1138h228v-1138zM1 1365h-228v228h228v-228z" />
<glyph unicode="&#xf1;" d="M1138 1593h-228v227h228v-227zM910 1365h-455v228h-227v227h455v-227h227v-228zM1138 1h-228v910h228v-910zM228 1365h-228v228h228v-228zM228 0h-228v1138h910v-228h-682v-910z" />
<glyph unicode="&#xf2;" d="M1138 228h-228v682h228v-682zM683 1365h-228v228h228v-228zM455 1593h-227v227h227v-227zM910 910h-682v228h682v-228zM910 0h-682v228h682v-228zM228 228h-228v682h228v-682z" />
<glyph unicode="&#xf3;" d="M1138 228h-228v682h228v-682zM910 1593h-227v227h227v-227zM683 1365h-228v228h228v-228zM910 910h-682v228h682v-228zM910 0h-682v228h682v-228zM228 228h-228v682h228v-682z" />
<glyph unicode="&#xf4;" d="M1138 228h-228v682h228v-682zM910 1365h-227v228h227v-228zM683 1593h-228v227h228v-227zM455 1365h-227v228h227v-228zM910 0h-682v228h682v-228zM910 910h-682v228h682v-228zM228 228h-228v682h228v-682z" />
<glyph unicode="&#xf5;" horiz-adv-x="1820" d="M1365 0h-1137v228h227v227h-455v455h228v228h227v227h228v228h227v-228h228v-227h227v-228h228v-455h-455v-227h227v-228z" />
<glyph unicode="&#xf6;" d="M1138 228h-228v682h228v-682zM910 1365h-227v228h227v-228zM455 1365h-227v228h227v-228zM910 910h-682v228h682v-228zM910 0h-682v228h682v-228zM228 228h-228v682h228v-682z" />
<glyph unicode="&#xf7;" horiz-adv-x="2048" d="M1138 0h-455v228h-228v455h-227v227h-228v683h228v227h1137v-227h455v-228h-455v228h-1137v-683h455v228h227v-228h-227v-682h227v455h228v227h227v228h455v-228h-455v-227h-227v-683z" />
<glyph unicode="&#xf8;" horiz-adv-x="1820" d="M1593 1138h-228v227h228v-227zM1365 228h-227v455h-228v227h-455v228h910v-910zM1138 0h-910v910h227v-455h228v-227h455v-228zM910 455h-227v228h227v-228zM228 -227h-228v228h228v-228z" />
<glyph unicode="&#xf9;" d="M1138 229h-228v910h228v-910zM683 1365h-228v228h228v-228zM910 1h-682v228h682v-228zM228 229h-228v910h228v-910zM455 1593h-227v227h227v-227z" />
<glyph unicode="&#xfa;" d="M1138 229h-228v910h228v-910zM910 1593h-227v227h227v-227zM683 1365h-228v228h228v-228zM910 1h-682v228h682v-228zM228 229h-228v910h228v-910z" />
<glyph unicode="&#xfb;" d="M1138 228h-228v910h228v-910zM910 1365h-227v228h227v-228zM683 1593h-228v227h228v-227zM455 1365h-227v228h227v-228zM910 0h-682v228h682v-228zM228 228h-228v910h228v-910z" />
<glyph unicode="&#xfc;" d="M1138 229h-228v910h228v-910zM910 1365h-227v228h227v-228zM910 1h-682v228h682v-228zM228 229h-228v910h228v-910zM455 1365h-227v228h227v-228z" />
<glyph unicode="&#xff;" d="M910 1365h-227v228h227v-228zM1138 -228h-228v228h-682v228h682v910h228v-1366zM910 -454h-682v227h682v-227zM228 229h-228v910h228v-910zM455 1365h-227v228h227v-228z" />
<glyph unicode="&#x131;" horiz-adv-x="1138" />
<glyph unicode="&#x152;" horiz-adv-x="2048" d="M1820 0h-1592v228h682v1137h-682v228h1592v-228h-682v-455h682v-227h-682v-455h682v-228zM228 229h-228v1137h228v-1137z" />
<glyph unicode="&#x153;" horiz-adv-x="2276" d="M2048 0h-1820v228h682v682h-682v228h1592v-228h-682v-227h682v227h228v-455h-910v-227h910v-228zM228 229h-228v682h228v-682z" />
<glyph unicode="&#x178;" d="M1138 910h-228v455h228v-455zM910 1593h-227v227h227v-227zM455 1593h-227v227h227v-227zM683 0h-228v683h228v-683zM910 683h-227v227h227v-227zM455 683h-227v227h227v-227zM228 910h-228v455h228v-455z" />
<glyph unicode="&#x192;" horiz-adv-x="1820" d="M910 0h-227v228h-228v227h-227v228h-228v682h228v228h455v-228h227v228h455v-228h228v-682h-228v-228h-227v-227h-228v-228z" />
<glyph unicode="&#x2c6;" horiz-adv-x="910" d="M683 1365h-228v228h228v-228zM455 1593h-227v227h227v-227zM228 1365h-228v228h228v-228z" />
<glyph unicode="&#x2c7;" horiz-adv-x="910" d="M683 1593h-228v227h228v-227zM455 1365h-227v228h227v-228zM228 1593h-228v227h228v-227z" />
<glyph unicode="&#x2d6;" d="M1138 1593h-228v227h228v-227zM910 1365h-455v228h-227v227h455v-227h227v-228zM228 1365h-228v228h228v-228z" />
<glyph unicode="&#x2d8;" horiz-adv-x="1138" d="M910 1593h-227v227h227v-227zM683 1365h-455v228h455v-228zM228 1593h-228v227h228v-227z" />
<glyph unicode="&#x2d9;" horiz-adv-x="683" d="M455 1365h-455v455h455v-455z" />
<glyph unicode="&#x2da;" horiz-adv-x="2048" d="M910 1138h-227v455h227v-455zM683 910h-455v228h455v-228zM683 1593h-455v227h455v-227zM228 1138h-228v455h228v-455z" />
<glyph unicode="&#x2db;" horiz-adv-x="455" d="M228 -454h-228v455h228v-455z" />
<glyph unicode="&#x2dd;" d="M1138 1593h-228v227h228v-227zM910 1365h-227v228h227v-228zM455 1593h-227v227h227v-227zM228 1365h-228v228h228v-228z" />
<glyph unicode="&#x3c0;" horiz-adv-x="1593" d="M1138 0h-228v910h-455v-910h-227v910h-228v228h1365v-228h-227v-910z" />
<glyph unicode="&#x1030;" horiz-adv-x="1138" />
<glyph unicode="&#x2013;" d="M1138 455h-1138v228h1138v-228z" />
<glyph unicode="&#x2014;" horiz-adv-x="2276" d="M1820 1593h-455v-228h455v228zM1365 1365h-455v-227h455v227zM683 -228h-455v228h-228v228h228v227h455v1138h682v227h683v-1592h-228v-228h-455v228h-227v227h227v228h455v455h-455v-228h-455v-910h-227v-228z" />
<glyph unicode="&#x2018;" horiz-adv-x="1593" d="M910 1365h-455v-455h455v455zM1365 0h-1365v910h228v455h227v228h455v-228h228v-455h227v-910z" />
<glyph unicode="&#x2019;" horiz-adv-x="683" d="M455 910h-227v228h-228v455h455v-683zM228 683h-228v227h228v-227z" />
<glyph unicode="&#x201a;" horiz-adv-x="683" d="M455 -228h-227v228h-228v455h455v-683zM228 -454h-228v227h228v-227z" />
<glyph unicode="&#x201c;" d="M1138 1138h-455v455h228v-228h227v-227zM455 1138h-455v455h228v-228h227v-227z" />
<glyph unicode="&#x201d;" d="M1138 1138h-227v227h-228v228h455v-455zM455 1138h-227v227h-228v228h455v-455z" />
<glyph unicode="&#x201e;" d="M1138 -228h-227v228h-228v455h455v-683zM910 -454h-227v227h227v-227zM228 -454h-228v227h228v-227zM455 -228h-227v228h-228v455h455v-683z" />
<glyph unicode="&#x2020;" horiz-adv-x="2731" d="M2503 1365h-227v228h227v-228zM683 910h-455v-455h227v228h228v227zM910 0h-682v228h-228v682h228v228h455v227h227v228h455v-228h228v-227h227v227h228v-227h-228v-228h-227v228h-228v227h-455v-455h228v-682h-228v-228zM2503 910h-227v228h227v-228zM2048 1593h-228 v227h228v-227z" />
<glyph unicode="&#x2021;" horiz-adv-x="2503" d="M1820 910h-227v-227h-228v-228h-227v-227h-228v-228h683v228h227v682zM1365 1365h-682v-227h-228v-683h228v228h227v227h228v228h227v227zM1820 -455h-1365v227h-227v228h-228v1365h228v228h227v227h1365v-227h228v-228h228v-1365h-228v-228h-228v-227z" />
<glyph unicode="&#x2022;" horiz-adv-x="2048" d="M1365 0h-1137v228h-228v682h228v228h227v455h228v227h455v-682h227v-228h455v-227h-455v227h-227v228h-228v455h-227v-683h227v-227h-227v227h-455v-682h1137v227h455v-227h-455v-228z" />
<glyph unicode="&#x2026;" horiz-adv-x="2503" d="M2276 0h-456v455h456v-455zM455 0h-455v455h455v-455zM1365 0h-455v455h455v-455z" />
<glyph unicode="&#x2039;" horiz-adv-x="910" d="M683 1138h-228v227h228v-227zM683 228h-228v227h228v-227zM455 910h-227v228h227v-228zM455 455h-227v228h227v-228zM228 683h-228v227h228v-227z" />
<glyph unicode="&#x203a;" horiz-adv-x="910" d="M683 683h-228v227h228v-227zM228 228h-228v227h228v-227zM455 455h-227v228h227v-228zM455 910h-227v228h227v-228zM228 1138h-228v227h228v-227z" />
<glyph unicode="&#x20ac;" horiz-adv-x="1593" d="M1365 1365h-910v228h910v-228zM1365 1h-910v228h910v-228zM455 228h-227v227h-228v228h228v227h-228v228h228v227h227v-227h683v-228h-683v-227h683v-228h-683v-227z" />
<glyph unicode="&#x2122;" horiz-adv-x="1820" d="M1593 1138h-228v227h-227v-227h-228v682h228v-227h227v227h228v-682zM455 1138h-227v455h-228v227h683v-227h-228v-455z" />
<glyph unicode="&#x2126;" horiz-adv-x="1138" />
<glyph unicode="&#x2202;" horiz-adv-x="1138" />
<glyph unicode="&#x2206;" horiz-adv-x="1138" />
<glyph unicode="&#x220f;" horiz-adv-x="1138" />
<glyph unicode="&#x2211;" horiz-adv-x="1138" />
<glyph unicode="&#x2215;" horiz-adv-x="1820" d="M1593 1365h-228v228h228v-228zM1365 1138h-227v227h227v-227zM1138 910h-228v228h228v-228zM910 683h-227v227h227v-227zM683 455h-228v228h228v-228zM455 228h-227v227h227v-227zM228 0h-228v228h228v-228z" />
<glyph unicode="&#x221a;" horiz-adv-x="1820" d="M1365 1138h-227v455h455v-228h-228v-227zM1138 683h-228v455h228v-455zM910 228h-227v455h227v-455zM683 0h-228v228h228v-228zM455 228h-227v227h227v-227zM228 455h-228v228h228v-228z" />
<glyph unicode="&#x221e;" horiz-adv-x="1138" />
<glyph unicode="&#x222b;" horiz-adv-x="1138" />
<glyph unicode="&#x2248;" horiz-adv-x="1593" d="M1365 910h-227v228h227v-228zM1365 455h-227v228h227v-228zM1138 683h-455v227h455v-227zM1138 228h-455v227h455v-227zM683 910h-455v228h455v-228zM683 455h-455v228h455v-228zM228 683h-228v227h228v-227zM228 228h-228v227h228v-227z" />
<glyph unicode="&#x2260;" d="M455 0h-227v228h-228v227h455v228h-455v227h683v228h227v-228h228v-227h-455v-228h455v-227h-683v-228z" />
<glyph unicode="&#x2264;" horiz-adv-x="1138" d="M910 1365h-227v228h227v-228zM910 0h-227v228h227v-228zM683 1138h-228v227h228v-227zM455 910h-227v228h227v-228zM228 683h-228v227h228v-227zM455 455h-227v228h227v-228zM683 228h-228v227h228v-227zM910 -455h-910v227h910v-227z" />
<glyph unicode="&#x2265;" horiz-adv-x="1138" d="M910 683h-227v227h227v-227zM910 -455h-910v227h910v-227zM228 0h-228v228h228v-228zM455 228h-227v227h227v-227zM683 455h-228v228h228v-228zM683 910h-228v228h228v-228zM455 1138h-227v227h227v-227zM228 1365h-228v228h228v-228z" />
<glyph unicode="&#x25ca;" horiz-adv-x="1138" />
<glyph unicode="&#x25fc;" horiz-adv-x="1140" d="M0 1140h1140v-1140h-1140v1140z" />
<glyph unicode="&#xf000;" horiz-adv-x="1138" />
<glyph unicode="&#xf001;" horiz-adv-x="1138" />
<glyph unicode="&#xf002;" horiz-adv-x="1138" />
<glyph horiz-adv-x="0" />
<glyph horiz-adv-x="0" />
<glyph horiz-adv-x="1024" />
<glyph horiz-adv-x="0" d="M228 455h-228v1138h228v-1138z" />
<glyph horiz-adv-x="0" d="M228 0h-228v228h228v-228z" />
<glyph horiz-adv-x="0" d="M228 1138h-228v455h228v-455z" />
<glyph horiz-adv-x="0" d="M910 1365h-227v-455h227v455zM910 683h-227v-455h227v455zM1138 -228h-228v228h-227v-228h-228v228h-455v228h455v455h-227v227h227v455h-227v228h227v227h228v-227h227v227h228v-227h455v-228h-455v-455h227v-227h-227v-455h227v-228h-227v-228z" />
<glyph horiz-adv-x="0" d="M683 0h-455v228h455v-228z" />
<glyph horiz-adv-x="0" d="M228 455h-228v1137h228v-1137z" />
<glyph horiz-adv-x="0" d="M683 683h-228v455h-227v227h227v455h228v-455h227v-227h-227v-455z" />
<glyph horiz-adv-x="0" d="M455 -228h-227v228h-228v455h455v-683z" />
<glyph horiz-adv-x="0" d="M228 0h-228v227h228v-227z" />
<glyph horiz-adv-x="0" d="M1138 228h-228v682h-227v228h227v227h228v-1137z" />
<glyph horiz-adv-x="0" d="M682 455h-682v228h682v-228z" />
<glyph horiz-adv-x="0" d="M228 228h-228v1137h228v-682h227v-228h-227v-227z" />
<glyph horiz-adv-x="0" d="M1138 0h-1138v683h228v-455h910v-228z" />
<glyph horiz-adv-x="0" d="M682 453h-682v227h682v-227z" />
<glyph horiz-adv-x="0" d="M227 0h-227v228h227v-228z" />
<glyph horiz-adv-x="0" d="M228 910h-228v-227h228v227zM910 0h-227v455h-683v228h683v455h-228v227h228v228h227v-910h228v-228h-228v-455z" />
<glyph horiz-adv-x="0" d="M910 683h-910v910h1138v-228h-910v-455h682v-227z" />
<glyph horiz-adv-x="0" d="M228 228h-228v1137h228v-455h682v-227h-682v-455z" />
<glyph horiz-adv-x="0" d="M227 1138h-227v455h227v-455z" />
<glyph horiz-adv-x="0" d="M1138 1138h-228v227h-910v228h1138v-455z" />
<glyph horiz-adv-x="0" d="M1138 228h-228v455h-682v227h682v455h228v-1137z" />
<glyph horiz-adv-x="0" d="M1138 228h-1138v227h1138v-227z" />
<glyph horiz-adv-x="0" d="M910 910h-227v-227h227v227zM1593 455h-1138v683h683v-455h227v682h228v-910z" />
<glyph horiz-adv-x="0" d="M1365 0h-1137v228h1137v-228z" />
<glyph horiz-adv-x="0" d="M1138 0h-228v683h-682v-683h-228v1365h228v-455h682v455h228v-1365z" />
<glyph horiz-adv-x="0" d="M910 0h-910v1593h910v-228h-682v-455h682v-227h-682v-455h682v-228z" />
<glyph horiz-adv-x="0" d="M910 0h-910v1593h910v-228h-682v-1137h682v-228z" />
<glyph horiz-adv-x="0" d="M1138 228h-228v455h-455v227h683v-682z" />
<glyph horiz-adv-x="0" d="M1138 228h-228v1365h228v-1365z" />
<glyph horiz-adv-x="0" d="M1365 0h-227v1138h-228v227h228v228h227v-1593z" />
<glyph horiz-adv-x="0" d="M228 0h-228v1593h228v-228h227v-227h-227v-1138z" />
<glyph horiz-adv-x="0" d="M1138 0h-228v455h-227v228h227v910h228v-1593z" />
<glyph horiz-adv-x="0" d="M228 0h-228v1593h228v-455h227v-228h-227v-910z" />
<glyph horiz-adv-x="0" d="M228 909h-228v682h228v-682z" />
<glyph horiz-adv-x="0" d="M228 0h-228v1593h910v-228h-682v-682h682v-228h-682v-455z" />
<glyph horiz-adv-x="0" d="M1138 0h-910v228h455v227h227v910h228v-1365z" />
<glyph horiz-adv-x="0" d="M228 0h-228v1593h910v-228h-682v-682h682v-455h-227v227h-455v-455z" />
<glyph horiz-adv-x="0" d="M228 683h-228v910h228v-910z" />
<glyph horiz-adv-x="0" d="M227 0h-227v227h227v-227z" />
<glyph horiz-adv-x="0" d="M1138 0h-1138v455h228v-227h910v-228z" />
<glyph horiz-adv-x="0" d="M1138 0h-910v228h682v227h-682v228h682v227h228v-910z" />
<glyph horiz-adv-x="0" d="M910 0h-910v1593h228v-455h682v-228h-682v-682h682v-228z" />
<glyph horiz-adv-x="0" d="M1138 0h-910v228h682v682h-682v228h682v455h228v-1593z" />
<glyph horiz-adv-x="0" d="M228 228h-228v682h228v-227h682v227h228v-455h-910v-227z" />
<glyph horiz-adv-x="0" d="M455 0h-227v910h-228v228h228v227h227v-227h228v-228h-228v-910z" />
<glyph horiz-adv-x="0" d="M1138 -228h-228v228h-682v228h682v682h-682v228h910v-1366z" />
<glyph horiz-adv-x="0" d="M228 0h-228v1593h228v-455h682v-228h-682v-910z" />
<glyph horiz-adv-x="0" d="M228 0h-228v1138h228v-1138z" />
<glyph horiz-adv-x="0" d="M455 -228h-227v1366h227v-1366z" />
<glyph horiz-adv-x="0" d="M228 0h-228v1593h228v-910h227v-228h-227v-455z" />
<glyph horiz-adv-x="0" d="M910 0h-227v910h-455v-910h-228v1138h1365v-228h-455v-910z" />
<glyph horiz-adv-x="0" d="M228 0h-228v1138h910v-228h-682v-910z" />
<glyph horiz-adv-x="0" d="M1138 -455h-228v455h-682v228h682v682h-682v228h910v-1593z" />
<glyph horiz-adv-x="0" d="M228 0h-228v1138h228v-228h227v-227h-227v-683z" />
<glyph horiz-adv-x="0" d="M455 228h-227v682h-228v228h228v455h227v-455h455v-228h-455v-682z" />
<glyph horiz-adv-x="0" d="M227 364h-227v910h227v-910z" />
<glyph horiz-adv-x="0" d="M1138 -228h-228v228h-682v228h682v910h228v-1366z" />
<glyph horiz-adv-x="0" d="M910 683h-227v227h-683v228h1138v-228h-228v-227z" />
<glyph horiz-adv-x="0" d="M1138 0h-1138v228h228v227h227v-227h683v-228z" />
<glyph horiz-adv-x="0" d="M910 1138h-455v227h-227v228h455v-228h227v-227z" />
<glyph horiz-adv-x="0" d="M683 -228h-228v228h-227v228h227v682h-227v228h227v227h228v-227h227v-228h-227v-682h227v-228h-227v-228z" />
<glyph horiz-adv-x="0" d="M683 455h-683v228h683v-228z" />
<glyph horiz-adv-x="0" d="M910 683h-682v682h227v-455h455v-227z" />
<glyph horiz-adv-x="0" d="M455 228h-227v227h-228v228h228v227h-228v228h228v227h227v-227h683v-228h-683v-227h683v-228h-683v-227z" />
<glyph horiz-adv-x="0" d="M1593 1593h-1138v-228h-227v-910h227v-455h228v455h227v-455h228v455h227v-455h228v455h227v910h-227v228zM1593 -228h-1138v228h-227v455h-228v910h228v228h227v227h1138v-227h227v-228h228v-910h-228v-455h-227v-228z" />
<glyph horiz-adv-x="0" d="M683 453h-683v227h683v-227z" />
<glyph horiz-adv-x="0" d="M683 0h-455v227h455v-227z" />
<glyph horiz-adv-x="0" d="M910 1138h-682v227h227v228h228v-228h227v-227z" />
<glyph horiz-adv-x="0" d="M1138 0h-228v455h-682v-455h-228v1138h228v-455h682v455h228v-1138z" />
<glyph horiz-adv-x="0" d="M910 1138h-682v455h227v-228h228v228h227v-455z" />
<glyph horiz-adv-x="0" d="M910 1138h-682v227h227v228h-227v227h455v-227h227v-455z" />
<glyph horiz-adv-x="0" d="M1138 0h-228v683h-682v-683h-228v1138h228v-228h682v228h228v-1138z" />
<glyph horiz-adv-x="0" d="M1138 0h-1138v1365h455v228h228v-228h455v-227h-910v-228h682v-227h-682v-455h910v-228z" />
<glyph horiz-adv-x="0" d="M1138 0h-1138v1138h1138v-228h-910v-227h682v-228h-682v-227h910v-228z" />
<glyph horiz-adv-x="0" d="M1138 0h-1138v1365h228v228h227v-228h228v228h227v-228h228v-227h-910v-228h682v-227h-682v-455h910v-228z" />
<glyph horiz-adv-x="0" d="M1138 0h-1138v1365h1138v-227h-910v-228h682v-227h-682v-455h910v-228z" />
<glyph horiz-adv-x="0" d="M683 0h-683v228h228v910h-228v455h228v-228h227v228h228v-455h-228v-910h228v-228z" />
<glyph horiz-adv-x="0" d="M683 0h-683v228h228v910h-228v227h683v-227h-228v-910h228v-228z" />
<glyph horiz-adv-x="0" d="M1138 228h-228v682h-227v455h-455v228h910v-1365z" />
<glyph horiz-adv-x="0" d="M910 0h-910v1365h228v-682h227v-455h455v-228z" />
<glyph horiz-adv-x="0" d="M228 -455h-228v1820h228v-455h682v-227h-682v-1138z" />
<glyph horiz-adv-x="0" d="M2048 0h-1820v228h682v227h-682v228h682v227h228v-227h682v227h228v-455h-910v-227h910v-228z" />
<glyph horiz-adv-x="0" d="M910 1365h-455v228h-227v227h455v-227h227v-228z" />
<glyph horiz-adv-x="0" d="M1365 228h-227v455h-228v227h-455v228h910v-910z" />
<glyph horiz-adv-x="0" d="M1138 0h-910v910h227v-455h228v-227h455v-228z" />
<glyph horiz-adv-x="0" d="M1820 0h-1592v228h682v1137h-682v228h1592v-228h-682v-455h682v-227h-682v-455h682v-228z" />
<glyph horiz-adv-x="0" d="M2048 0h-1820v228h682v682h-682v228h1592v-228h-682v-227h682v227h228v-455h-910v-227h910v-228z" />
<glyph horiz-adv-x="0" d="M1138 0h-1138v228h1138v-228z" />
<glyph horiz-adv-x="0" d="M455 910h-227v228h-228v455h455v-683z" />
<glyph horiz-adv-x="0" d="M455 1138h-455v455h228v-228h227v-227z" />
<glyph horiz-adv-x="0" d="M455 1138h-227v227h-228v228h455v-455z" />
<glyph horiz-adv-x="0" d="M683 910h-455v-455h227v228h228v227zM910 0h-682v228h-228v682h228v228h455v227h227v228h455v-228h228v-227h227v227h228v-227h-228v-228h-227v228h-228v227h-455v-455h228v-682h-228v-228z" />
<glyph horiz-adv-x="0" d="M2276 0h-456v455h456v-455z" />
<glyph horiz-adv-x="0" d="M1593 1138h-228v227h-227v-227h-228v682h228v-227h227v227h228v-682z" />
<glyph horiz-adv-x="0" d="M455 1138h-227v455h-228v227h683v-227h-228v-455z" />
<glyph horiz-adv-x="1025" d="M768 1693h-511v-1566h511v1566zM896 0h-769v1820h769v-1820z" />
</font>
</defs>
</svg>
